<?xml version="1.0" encoding="UTF-8"?>
<!DOCTYPE svg PUBLIC "-//W3C//DTD SVG 1.0//EN" "http://www.w3.org/TR/2001/REC-SVG-20010904/DTD/svg10.dtd">
<!-- Creator: CorelDRAW 2020 (64-Bit) -->
<svg xmlns="http://www.w3.org/2000/svg" xml:space="preserve" width="111px" height="52px" version="1.0" style="shape-rendering:geometricPrecision; text-rendering:geometricPrecision; image-rendering:optimizeQuality; fill-rule:evenodd; clip-rule:evenodd"
viewBox="0 0 107.139 50.674"
 xmlns:xlink="http://www.w3.org/1999/xlink"
 xmlns:xodm="http://www.corel.com/coreldraw/odm/2003">
 <defs>
  <style type="text/css">
   <![CDATA[
    .fil2 {fill:#050505}
    .fil0 {fill:#B3B3B3}
    .fil1 {fill:yellow;fill-rule:nonzero}
   ]]>
  </style>
 </defs>
 <g id="Слой_x0020_1">
  <metadata id="CorelCorpID_0Corel-Layer"/>
  <polygon class="fil0" points="11.723,0.894 107.139,9.17 91.937,44.454 0,50.674 "/>
  <path class="fil1" d="M50.764 22.803c0.062,14.723 11.197,22.146 22.209,22.084 9.217,0 18.93,-4.825 20.538,-17.074 -3.774,0 -7.176,0 -10.888,0 -1.175,4.64 -4.949,6.991 -9.65,6.991 -6.558,-0.062 -10.764,-5.63 -10.764,-12.001 0,-7.177 4.268,-12.064 10.764,-12.064 4.64,0 7.918,1.98 9.465,6.372 3.773,0 7.114,0 10.887,0 -1.67,-11.568 -11.382,-16.455 -20.352,-16.455 -11.012,0 -22.147,7.423 -22.209,22.147z"/>
  <path class="fil2" d="M18.959 9.261l18.783 0.022 -0.067 7.281 -8.866 -0.018c-0.391,-0.629 -0.83,-1.359 -2.171,-1.074 -1.866,0.396 -1.787,3.33 0.211,3.55 1.109,0.122 1.505,-0.426 1.979,-1.061 4.755,-0.568 9.998,1.265 10.26,-1.139l-0.014 -3.332c0,-1.373 -0.017,-2.756 0.012,-4.218l7.482 0.01 -0.069 18.777 -6.18 -0.003c-0.397,-0.314 -0.727,-0.714 -1.224,-1.09 -2.664,-0.028 -3.218,1.981 -1.467,3.485 1.95,0.118 1.717,-0.282 2.691,-1.054l6.245 0.004 -0.085 7.48 -27.536 -0.049 0.009 -7.43 14.094 -0.058 4.394 -4.572c1.252,-0.031 1.967,-0.027 2.477,-0.842 0.922,-1.477 -0.672,-3.456 -2.507,-2.285 -0.834,0.531 -0.807,1.169 -0.799,2.231 -0.515,0.608 -0.918,0.922 -1.439,1.487 -2.76,2.996 -1.895,2.698 -5.46,2.697 -3.138,-0.001 -7.79,0.266 -10.788,-0.058l-0.033 -4.31 6.401 0.07c0.757,0.827 0.676,1.133 2.21,1.093 1.002,-0.561 1.307,-0.952 1.343,-2.304 -0.178,-0.759 -1.593,-2.008 -2.842,-0.844 -0.286,0.266 -0.38,0.413 -0.711,0.708l-6.407 0.076 0.074 -13.23zm7.753 36.935l0.753 0c0.631,-1.328 0.262,-6.003 0.305,-7.929l4.301 -0.047c0.025,1.921 -0.314,6.689 0.287,7.976l0.815 0c0.57,-1.628 0.202,-5.934 0.258,-7.987l4.274 0.001c0.121,2.055 -0.228,6.528 0.286,7.986l0.81 0c0.611,-1.316 0.243,-6 0.288,-7.887 1.806,-0.35 7.432,0.394 8.447,-0.321 0.243,-0.255 0.249,0.211 0.371,-0.835l0.009 -7.685c2.146,-0.293 6.226,0.262 7.9,-0.261l-0.034 -0.945c-1.594,-0.576 -5.74,0.015 -7.886,-0.274l0.053 -4.205c4.005,-0.358 8.164,1.113 7.801,-1.205 -1.779,-0.547 -5.673,0.121 -7.861,-0.276l0.013 -4.129c2.365,-0.417 5.731,0.321 7.895,-0.264l0.018 -0.954c-1.557,-0.551 -5.779,-0.053 -7.86,-0.26 -0.22,-1.835 0.398,-7.436 -0.327,-8.508 -0.419,-0.406 -1.123,-0.264 -2.005,-0.26 -0.736,0.005 -1.473,0.001 -2.21,0.001 -1.308,0 -3.051,0.126 -4.294,-0.079 -0.136,-1.527 0.202,-7.216 -0.296,-7.672 -1.551,-0.723 -1.081,1.82 -1.08,3.148 0,1.438 0.094,3.207 -0.068,4.602l-4.186 0.003c-0.266,-1.981 0.306,-6.396 -0.281,-7.839 -1.177,-0.198 -1.123,0.084 -1.138,1.233l-0.027 6.595 -4.237 -0.03c-0.183,-1.99 0.321,-6.44 -0.287,-7.889l-0.88 0.069c-0.588,1.39 -0.071,5.859 -0.272,7.841 -1.661,0.051 -7.558,-0.312 -8.587,0.277 -0.575,1.413 0.034,6.497 -0.257,8.57 -1.532,-0.026 -3.073,-0.01 -4.606,-0.01 -1.419,0 -3.438,-0.5 -3.19,1.04 1.13,0.696 6.136,0.238 7.862,0.32l0.074 4.327c-1.502,0.025 -3,-0.018 -4.525,0.014 -1.045,0.022 -3.358,-0.447 -3.426,0.57 -0.077,1.146 2.738,0.676 3.647,0.639 1.428,-0.059 2.733,0.08 4.227,0.082l-0.046 4.306c-1.532,0.045 -3.088,0.003 -4.623,0.002 -1.713,0 -3.471,-0.512 -3.188,1.315l7.824 0.062c0.119,1.714 -0.201,7.47 0.226,8.558 1.256,0.611 6.731,0.156 8.62,0.26 0.073,1.86 -0.217,6.774 0.313,7.954z"/>
 </g>
</svg>
