<?xml version="1.0" encoding="UTF-8"?>
<!DOCTYPE svg PUBLIC "-//W3C//DTD SVG 1.0//EN" "http://www.w3.org/TR/2001/REC-SVG-20010904/DTD/svg10.dtd">
<!-- Creator: CorelDRAW 2020 (64-Bit) -->
<svg xmlns="http://www.w3.org/2000/svg" xml:space="preserve" width="112px" height="60px" version="1.0" style="shape-rendering:geometricPrecision; text-rendering:geometricPrecision; image-rendering:optimizeQuality; fill-rule:evenodd; clip-rule:evenodd"
viewBox="0 0 105.814 56.471"
 xmlns:xlink="http://www.w3.org/1999/xlink"
 xmlns:xodm="http://www.corel.com/coreldraw/odm/2003">
 <defs>
  <style type="text/css">
   <![CDATA[
    .fil1 {fill:blue}
    .fil0 {fill:#003399}
    .fil2 {fill:#00CCFF}
    .fil3 {fill:url(#id0);fill-rule:nonzero}
   ]]>
  </style>
  <linearGradient id="id0" gradientUnits="userSpaceOnUse" x1="81.741" y1="0" x2="81.741" y2="56.471">
   <stop offset="0" style="stop-opacity:1; stop-color:#003399"/>
   <stop offset="0.501961" style="stop-opacity:1; stop-color:blue"/>
   <stop offset="1" style="stop-opacity:1; stop-color:#00CCFF"/>
  </linearGradient>
 </defs>
 <g id="Слой_x0020_1">
  <metadata id="CorelCorpID_0Corel-Layer"/>
  <path class="fil0" d="M27.417 18.327c-0.604,-5.316 3.353,-9.373 7.922,-9.93 5.222,-0.635 9.455,3.346 9.951,7.924 0.578,5.347 -3.317,9.423 -7.943,9.952 -5.302,0.606 -9.409,-3.365 -9.93,-7.946zm-8.229 2.086c-0.441,1.563 0.824,4.72 1.774,5.28 1.306,0.439 2.569,-3.222 5.841,0.832 3.091,3.83 -1.699,4.193 0.068,5.811 0.558,0.512 1.994,1.235 2.866,1.552 3.978,1.445 0.391,-2.944 4.855,-3.31 8.083,-0.662 1.083,6.428 8.547,3.243 4.088,-1.745 -1.129,-2.398 1.047,-5.504 0.487,-0.694 1.526,-1.646 2.314,-2.096 3.353,-1.915 3.42,3.502 5.615,-0.54 3.196,-5.887 -1.385,-2.511 -2.351,-5.67 -0.423,-1.382 -0.144,-3.829 0.616,-4.753 1.162,-1.415 3.701,0.232 3.239,-2.308 -0.28,-1.54 -0.962,-3.176 -1.738,-3.984 -1.671,-0.164 -1.964,1.855 -4.074,0.831 -0.848,-0.412 -2.145,-1.795 -2.626,-2.718 -1.854,-3.554 4.621,-3.4 -1.964,-6.2 -4.618,-1.964 0.069,3.999 -6.783,3.182 -5.566,-0.663 -0.119,-5.766 -6.205,-3.472 -5.478,2.064 1.061,2.365 -2.051,6.241 -0.472,0.588 -2.075,2.047 -3.339,2.041 -1.754,-0.009 -2.309,-2.522 -3.624,-0.849 -0.538,0.684 -1.557,2.634 -1.691,3.656 -0.253,1.925 2.228,0.728 3.142,2.27 0.651,1.099 0.598,3.374 0.136,4.616 -0.729,1.962 -2.01,1.171 -3.614,1.849z"/>
  <path class="fil1" d="M6.593 39.182c-0.789,-4.762 2.837,-8.637 6.769,-9.191 4.849,-0.683 8.612,2.837 9.148,6.823 0.652,4.845 -2.814,8.51 -6.83,9.098 -4.805,0.704 -8.439,-2.816 -9.087,-6.73zm-3.501 -3.995c-2.606,0.522 -3.085,-0.93 -3.092,2.658 -0.006,3.667 0.248,2.355 3.013,2.855 0.202,0.27 1.367,2.974 1.409,3.429 -0.483,0.987 -2.308,1.601 -1.307,2.872 4.047,5.138 3.83,1.218 5.308,1.075 0.194,-0.019 3.277,1.232 3.392,1.457 0.38,2.722 -0.681,2.951 2.731,2.95 3.4,0 2.36,-0.221 2.727,-2.95 0.12,-0.22 3.218,-1.459 3.302,-1.461 1.081,-0.033 1.53,2.322 2.91,1.395 0.721,-0.485 1.907,-1.759 2.437,-2.387 1.136,-1.347 -0.756,-1.939 -1.253,-2.951 0.05,-0.53 1.169,-3.095 1.417,-3.425 2.628,-0.532 3.011,0.835 3.009,-2.725 -0.002,-3.77 -0.404,-2.226 -3.092,-2.795 -0.349,-0.637 -0.662,-1.727 -1.052,-2.531 -0.637,-1.312 0.321,-1.651 0.96,-2.296 0.881,-0.89 -0.09,-1.744 -0.678,-2.262 -0.534,-0.47 -1.323,-1.526 -1.971,-1.791 -0.983,-0.402 -1.611,0.858 -2.138,1.282 -0.691,0.556 -1.758,-0.301 -2.646,-0.629 -1.831,-0.676 -1.105,-0.459 -1.252,-2.487 -0.093,-1.283 -1.432,-1.064 -2.68,-1.068 -1.146,-0.003 -2.527,-0.18 -2.67,0.944 -0.236,1.867 0.668,1.949 -1.159,2.582 -0.844,0.292 -2.028,1.157 -2.67,0.715 -0.557,-0.383 -1.221,-1.755 -2.218,-1.34 -0.678,0.282 -1.309,1.186 -1.911,1.716 -3.039,2.673 1.333,2.401 0.27,4.542 -0.4,0.806 -0.735,1.985 -1.096,2.626z"/>
  <path class="fil2" d="M38.631 48.273c-0.449,2.001 -2.402,3.824 -5.028,3.26 -5.464,-1.172 -3.675,-9.542 1.864,-8.263 1.932,0.446 3.723,2.511 3.164,5.003zm-6.01 -9.603c-0.097,1.002 0.545,1.756 -1.488,2.926 -0.41,0.236 -1.021,0.544 -1.617,0.548 -0.902,0.006 -0.917,-0.452 -1.602,-0.697 -0.696,0.282 -1.938,2.133 -1.867,3.217 0.237,0.495 1.723,-0.019 1.738,2.671 0.016,2.858 -1.49,2.242 -1.745,2.81 -0.037,1.101 1.14,2.593 1.694,3.199 1.317,-0.193 1.062,-1.471 3.401,-0.138 2.1,1.196 1.363,1.988 1.501,2.915 0.943,0.537 2.753,0.375 3.709,0.046 0.113,-0.846 -0.231,-1.157 0.231,-1.907 0.439,-0.712 2.02,-1.642 2.971,-1.618 0.979,0.025 0.891,0.56 1.602,0.694 0.622,-0.329 1.78,-2.116 1.832,-3.179 -0.475,-0.462 -0.932,-0.29 -1.354,-0.892 -0.594,-0.85 -0.562,-2.836 -0.061,-3.652 0.406,-0.663 0.934,-0.529 1.403,-0.982 0.006,-1.057 -1.201,-2.888 -1.82,-3.178 -0.72,0.117 -0.628,0.602 -1.478,0.685 -0.986,0.096 -2.565,-0.873 -3.028,-1.526 -0.398,-0.561 -0.214,-1.223 -0.287,-1.993 -0.905,-0.312 -2.916,-0.424 -3.735,0.051z"/>
  <path class="fil1" d="M13.872 32.441c-7.422,1.01 -5.822,11.988 1.463,11.009 2.793,-0.376 5.13,-2.958 4.715,-6.275 -0.346,-2.762 -2.996,-5.167 -6.178,-4.734z"/>
  <path class="fil0" d="M31.302 18.06c0.368,2.476 2.704,4.715 5.655,4.343 6.691,-0.844 5.542,-10.938 -1.293,-10.123 -2.543,0.304 -4.806,2.8 -4.362,5.78z"/>
  <path class="fil2" d="M31.392 48.139c0.32,1.478 1.844,2.784 3.831,2.358 1.474,-0.315 2.78,-1.879 2.389,-3.778 -0.829,-4.016 -7.156,-2.901 -6.22,1.42z"/>
  <path class="fil3" d="M97.919 27.205c0.772,-0.343 6.265,-3.089 6.265,-11.7 0,-8.038 -6.008,-15.505 -19.997,-15.505l-24.03 0c-1.974,0 -2.489,0.944 -2.489,2.489l0 51.493c0,1.544 0.515,2.489 2.489,2.489l25.232 0c11.929,0 20.425,-5.579 20.425,-16.478 0,-9.269 -7.209,-12.53 -7.895,-12.788l0 0zm-12.359 17.079l-14.418 0 0 -32.183 13.045 0c4.463,0 7.123,0.93 7.123,4.763 0,3.318 -2.145,5.106 -7.123,5.106l0 0 -1.116 0c-1.973,0 -2.488,0.944 -2.488,2.489l0 6.523c0,1.544 0.515,2.488 2.488,2.488l1.974 0c4.12,0 7.124,1.202 7.124,5.236 0,3.862 -2.403,5.578 -6.609,5.578z"/>
 </g>
</svg>
